<svg xmlns="http://www.w3.org/2000/svg" viewBox="0 0 32 32">
  <rect width="32" height="32" fill="#0a0a0b" rx="6"/>
  <defs>
    <linearGradient id="waveGradient" x1="0%" y1="0%" x2="100%" y2="0%">
      <stop offset="0%" stop-color="#00c8ff"/>
      <stop offset="100%" stop-color="#ff5500"/>
    </linearGradient>
  </defs>
  <path 
    d="M4,16 Q6,16 7,12 Q8,8 9,8 Q10,8 11,12 Q12,16 13,20 Q14,24 15,24 Q16,24 17,20 Q18,16 19,12 Q20,8 21,8 Q22,8 23,12 Q24,16 25,20 Q26,24 27,24 Q28,24 29,20 Q30,16 31,16"
    stroke="url(#waveGradient)"
    stroke-width="2.5"
    stroke-linecap="round"
    stroke-linejoin="round"
    fill="none"
  />
</svg>




